# xmcd
#
# Track frame offsets: 
#        150
#        18705
#        37570
#        57292
#        75760
#        90537
#        104575
#        125392
#        141500
#        154150
#        169057
#        183652
#        197967
#        216155
#        228305
#
# Disc length: 3306 seconds
#
# Revision: 2
# Processed by: cddbd v1.5.2PL0 Copyright (c) Steve Scherf et al.
# Submitted via: ExactAudioCopy v1.0b6
#
DISCID=c70ce80f
DTITLE=Vários - Amigos Para Sempre - Volume 3 (2000)
DYEAR=2000
DGENRE=Other
TTITLE0=Chitãozinho and Xororó - Coraçãoo Vazio (We're All Alone) - Chit
TTITLE0=ãozinho and Xororó
TTITLE1=Zezé Di Camargo and Luciano - Será Que Foi Saudade - Zezé Di Cam
TTITLE1=argo and Luciano
TTITLE2=Leonardo - Mentira Virou Paixão - Leonardo
TTITLE3=Roberta Miranda - Majestade, O Sabiá (Ao Vivo) - Roberta Miran
TTITLE3=da
TTITLE4=Chrystian and Ralf - Poeira No Vento (Dust In The Wind) - Chryst
TTITLE4=ian and Ralf
TTITLE5=Ataíde and Alexandre - Valeu - Ataíde and Alexandre
TTITLE6=Daniel - A Gata Do Milênio - Daniel
TTITLE7=Rick and Renner - Muleca - Rick and Renner
TTITLE8=Rionegro and Solimões - Bate O Pé - Rionegro and Solimões
TTITLE9=Gian and Giovani - Gol Do Coração - Gian and Giovani
TTITLE10=Paula Hunter - Eu Quero É Ser Feliz - Paula Hunter
TTITLE11=Milionário and José Rico - Denguinho (Ao Vivo) - Milionário and J
TTITLE11=osé Rico
TTITLE12=Adalberto and Adriano - Culpados - Adalberto and Adriano
TTITLE13=Gilberto and Gilmar - Só Tô O Pó - Gilberto and Gilmar
TTITLE14=Cleiton and Camargo - Não Quero Te Perder - Cleiton and Camargo
EXTD=
EXTT0=
EXTT1=
EXTT2=
EXTT3=
EXTT4=
EXTT5=
EXTT6=
EXTT7=
EXTT8=
EXTT9=
EXTT10=
EXTT11=
EXTT12=
EXTT13=
EXTT14=
PLAYORDER=
